<?xml version="1.0" standalone="no"?>
<!DOCTYPE svg PUBLIC "-//W3C//DTD SVG 20010904//EN"
 "http://www.w3.org/TR/2001/REC-SVG-20010904/DTD/svg10.dtd">
<svg version="1.0" xmlns="http://www.w3.org/2000/svg"
 width="825.000000pt" height="825.000000pt" viewBox="0 0 825.000000 825.000000"
 preserveAspectRatio="xMidYMid meet">
<metadata>
Created by potrace 1.14, written by Peter Selinger 2001-2017
</metadata>
<g transform="translate(0.000000,825.000000) scale(0.100000,-0.100000)"
fill="#000000" stroke="none">
<path d="M0 7261 c0 -544 3 -996 6 -1005 3 -9 13 -16 21 -16 8 0 36 -22 63
-50 44 -46 53 -50 94 -50 25 0 46 -4 46 -10 0 -5 14 -10 30 -10 17 0 30 -4 30
-10 0 -5 5 -10 10 -10 6 0 10 18 10 40 0 22 5 40 10 40 6 0 10 9 10 20 0 11 5
20 10 20 6 0 10 7 10 15 0 20 45 65 65 65 8 0 15 5 15 10 0 6 23 10 50 10 28
0 50 -4 50 -10 0 -5 7 -10 16 -10 20 0 44 -24 44 -44 0 -9 5 -16 10 -16 6 0
10 -9 10 -20 0 -11 5 -20 10 -20 6 0 10 -30 10 -70 0 -40 -4 -70 -10 -70 -5 0
-10 -7 -10 -15 0 -9 -16 -31 -35 -50 -29 -30 -41 -35 -80 -35 -25 0 -45 5 -45
10 0 6 -8 10 -18 10 -10 0 -24 9 -32 20 -8 11 -21 20 -29 20 -7 0 -22 10 -32
22 -11 11 -22 18 -27 13 -4 -4 -1 -10 6 -12 14 -6 17 -83 2 -83 -5 0 -10 -9
-10 -20 0 -11 -4 -20 -10 -20 -5 0 -10 -7 -10 -16 0 -9 -13 -29 -30 -44 -16
-15 -30 -33 -30 -39 0 -17 -67 -81 -85 -81 -8 0 -15 -4 -15 -10 0 -5 -4 -10
-10 -10 -5 0 -10 16 -10 35 0 30 -9 45 -55 90 l-55 55 1 -582 c1 -321 4 -574
6 -564 3 10 41 54 84 97 43 43 79 83 79 89 0 22 89 100 115 100 14 0 25 5 25
10 0 6 9 10 20 10 11 0 20 5 20 10 0 6 21 10 46 10 29 0 51 6 62 17 12 12 13
18 4 21 -8 2 -12 35 -12 113 0 66 -4 109 -10 109 -5 0 -10 9 -10 20 0 11 5 20
10 20 6 0 10 27 10 60 0 33 4 60 10 60 6 0 10 11 10 25 0 18 21 47 75 100 41
41 82 75 90 75 8 0 15 5 15 10 0 6 14 10 30 10 17 0 30 5 30 10 0 6 9 10 20
10 11 0 20 5 20 10 0 6 14 10 30 10 17 0 30 5 30 10 0 6 27 10 60 10 33 0 60
4 60 10 0 6 9 10 20 10 11 0 20 -4 20 -10 0 -6 27 -10 60 -10 33 0 60 -4 60
-10 0 -5 14 -10 30 -10 17 0 30 5 30 10 0 6 47 10 120 10 73 0 120 -4 120 -10
0 -5 14 -10 30 -10 20 0 30 5 30 15 0 19 44 65 62 65 8 0 20 9 28 20 8 12 26
20 42 20 15 0 28 5 28 10 0 6 8 10 18 10 10 0 24 9 32 20 8 11 22 20 32 20 10
0 18 5 18 10 0 6 14 10 30 10 17 0 30 5 30 10 0 6 30 10 70 10 40 0 70 -4 70
-10 0 -5 9 -10 20 -10 11 0 20 -4 20 -10 0 -5 13 -10 28 -10 16 0 34 -8 42
-20 8 -11 22 -20 32 -20 10 0 18 -4 18 -10 0 -5 14 -10 30 -10 17 0 30 -4 30
-10 0 -5 18 -10 40 -10 22 0 40 -4 40 -10 0 -5 8 -10 18 -10 10 0 24 -9 32
-20 22 -30 36 -25 90 30 33 34 57 50 74 50 14 0 26 5 26 10 0 6 50 10 130 10
80 0 130 -4 130 -10 0 -5 14 -10 30 -10 17 0 30 -4 30 -10 0 -5 9 -10 20 -10
11 0 20 -4 20 -10 0 -5 8 -10 18 -10 10 0 24 -9 32 -20 8 -11 22 -20 32 -20
10 0 18 -4 18 -10 0 -5 9 -10 20 -10 12 0 20 -7 20 -16 0 -8 18 -33 40 -54 22
-21 40 -46 40 -54 0 -9 5 -16 10 -16 6 0 10 -13 10 -30 0 -16 5 -30 10 -30 6
0 10 -9 10 -20 0 -11 5 -20 10 -20 6 0 10 -22 10 -50 0 -27 5 -50 10 -50 6 0
10 -43 10 -110 0 -67 -4 -110 -10 -110 -5 0 -10 -9 -10 -20 0 -11 -4 -20 -10
-20 -5 0 -10 -9 -10 -20 0 -11 -4 -20 -10 -20 -5 0 -10 -9 -10 -20 0 -11 -4
-20 -10 -20 -5 0 -10 -9 -10 -20 0 -11 -4 -20 -10 -20 -5 0 -10 -8 -10 -18 0
-10 -9 -24 -20 -32 -11 -8 -20 -20 -20 -27 0 -19 -86 -103 -105 -103 -8 0 -15
-4 -15 -10 0 -5 -22 -10 -50 -10 -27 0 -50 -4 -50 -10 0 -6 -50 -10 -130 -10
-80 0 -130 4 -130 10 0 6 -27 10 -60 10 -33 0 -60 4 -60 10 0 6 -17 10 -38 10
-26 0 -42 6 -52 20 -8 11 -20 20 -28 20 -18 0 -62 46 -62 65 0 11 -11 15 -46
15 -47 0 -74 -16 -74 -44 0 -9 -8 -16 -20 -16 -11 0 -20 -4 -20 -10 0 -6 -27
-10 -60 -10 -33 0 -60 4 -60 10 0 6 -30 10 -70 10 -40 0 -70 4 -70 10 0 6 -33
10 -80 10 -47 0 -80 4 -80 10 0 6 -9 10 -20 10 -11 0 -20 5 -20 10 0 6 -13 10
-30 10 -16 0 -30 5 -30 10 0 6 -9 10 -19 10 -11 0 -21 6 -23 12 -7 21 -38 -17
-38 -46 0 -14 -4 -26 -10 -26 -5 0 -10 -9 -10 -20 0 -11 -4 -20 -10 -20 -5 0
-10 -9 -10 -20 0 -11 -4 -20 -10 -20 -5 0 -10 -9 -10 -20 0 -11 -4 -20 -10
-20 -5 0 -10 -7 -10 -15 0 -20 -65 -85 -85 -85 -8 0 -15 -4 -15 -10 0 -6 -47
-10 -120 -10 -73 0 -120 -4 -120 -10 0 -5 5 -10 10 -10 6 0 10 -22 10 -50 0
-27 5 -50 10 -50 6 0 10 -50 10 -130 0 -80 -4 -130 -10 -130 -5 0 -10 -8 -10
-18 0 -10 -9 -24 -20 -32 -11 -8 -20 -22 -20 -32 0 -10 -4 -18 -10 -18 -5 0
-10 -8 -10 -18 0 -10 -9 -24 -20 -32 -11 -8 -20 -21 -20 -28 0 -7 -19 -32 -42
-54 -26 -25 -38 -43 -30 -45 6 -3 12 -13 12 -24 0 -10 5 -19 10 -19 6 0 10 -8
10 -18 0 -10 9 -24 20 -32 11 -8 20 -22 20 -32 0 -10 5 -18 10 -18 6 0 10 -8
10 -18 0 -10 9 -24 20 -32 11 -8 20 -22 20 -32 0 -10 5 -18 10 -18 6 0 10 -9
10 -20 0 -11 5 -20 10 -20 6 0 10 -9 10 -20 0 -11 5 -20 10 -20 6 0 10 -27 10
-60 0 -33 -4 -60 -10 -60 -5 0 -10 -13 -10 -30 0 -27 3 -30 30 -30 17 0 30 -4
30 -10 0 -5 9 -10 20 -10 11 0 20 -4 20 -10 0 -5 9 -10 20 -10 13 0 20 -7 20
-18 0 -10 9 -24 20 -32 11 -8 20 -21 20 -30 0 -9 9 -22 20 -30 11 -8 20 -21
20 -30 0 -9 9 -22 20 -30 11 -8 20 -22 20 -32 0 -10 5 -18 10 -18 6 0 10 -9
10 -20 0 -11 5 -20 10 -20 6 0 10 -13 10 -30 0 -16 5 -30 10 -30 6 0 10 -18
10 -40 0 -22 5 -40 10 -40 6 0 10 -18 10 -40 0 -22 5 -40 10 -40 6 0 10 -12
10 -26 0 -42 21 -54 94 -54 37 0 66 -4 66 -10 0 -5 23 -10 50 -10 28 0 50 -4
50 -10 0 -5 11 -10 25 -10 29 0 95 -59 95 -85 0 -8 7 -15 16 -15 9 0 29 -13
44 -30 15 -16 33 -30 39 -30 15 0 101 -86 101 -100 0 -16 26 -40 42 -40 8 0
20 -9 28 -20 18 -26 42 -26 60 0 11 15 26 20 62 20 26 0 48 -4 48 -10 0 -5 14
-10 30 -10 17 0 30 3 30 6 0 11 -29 34 -42 34 -8 0 -20 9 -28 20 -8 11 -20 20
-28 20 -17 0 -42 25 -42 42 0 8 -9 20 -20 28 -11 8 -20 22 -20 32 0 10 -4 18
-10 18 -5 0 -10 9 -10 20 0 11 -4 20 -10 20 -5 0 -10 9 -10 20 0 11 -4 20 -10
20 -5 0 -10 9 -10 20 0 11 -4 20 -10 20 -5 0 -10 9 -10 20 0 11 -4 20 -10 20
-5 0 -10 18 -10 40 0 22 -4 40 -10 40 -5 0 -10 14 -10 30 0 17 5 30 10 30 6 0
10 23 10 50 0 28 5 50 10 50 6 0 10 23 10 50 0 28 5 50 10 50 18 0 11 55 -10
70 -11 8 -20 21 -20 30 0 9 -9 22 -20 30 -11 8 -20 22 -20 32 0 10 -4 18 -10
18 -5 0 -10 9 -10 20 0 11 -4 20 -10 20 -5 0 -10 18 -10 40 0 22 -4 40 -10 40
-6 0 -10 37 -10 90 0 53 4 90 10 90 6 0 10 18 10 40 0 22 5 40 10 40 6 0 10
14 10 30 0 17 5 30 10 30 6 0 10 9 10 20 0 11 5 20 10 20 6 0 10 7 10 15 0 9
11 27 25 40 13 14 31 25 40 25 8 0 15 5 15 10 0 6 9 10 20 10 11 0 20 5 20 10
0 6 14 10 30 10 17 0 30 5 30 10 0 6 14 10 30 10 17 0 30 5 30 10 0 6 9 10 20
10 11 0 20 5 20 10 0 6 14 10 30 10 17 0 30 5 30 10 0 6 18 10 40 10 22 0 40
5 40 10 0 6 40 10 100 10 60 0 100 -4 100 -10 0 -5 9 -10 20 -10 11 0 20 -4
20 -10 0 -5 14 -10 30 -10 17 0 30 -4 30 -10 0 -5 7 -10 15 -10 18 0 65 -44
65 -60 0 -17 26 -40 44 -40 9 0 16 5 16 10 0 6 13 10 28 10 16 0 34 8 42 20 8
11 22 20 32 20 10 0 18 5 18 10 0 6 27 10 60 10 33 0 60 4 60 10 0 6 14 10 30
10 17 0 30 -4 30 -10 0 -5 14 -10 30 -10 17 0 30 -4 30 -10 0 -5 14 -10 30
-10 17 0 30 -4 30 -10 0 -5 9 -10 20 -10 11 0 20 -4 20 -10 0 -5 9 -10 20 -10
11 0 20 -4 20 -10 0 -5 9 -10 20 -10 11 0 20 -4 20 -10 0 -5 7 -10 16 -10 9 0
29 -13 44 -30 15 -16 35 -30 44 -30 9 0 16 -8 16 -18 0 -10 9 -24 20 -32 11
-8 20 -22 20 -32 0 -13 8 -18 30 -18 17 0 30 5 30 10 0 6 23 10 50 10 28 0 50
-4 50 -10 0 -6 37 -10 90 -10 53 0 90 -4 90 -10 0 -5 18 -10 40 -10 22 0 40
-4 40 -10 0 -5 14 -10 30 -10 17 0 30 -4 30 -10 0 -5 9 -10 20 -10 11 0 20 -4
20 -10 0 -5 11 -10 25 -10 18 0 45 -19 90 -65 36 -35 65 -70 65 -78 0 -7 9
-19 20 -27 11 -8 20 -22 20 -32 0 -10 5 -18 10 -18 6 0 10 -9 10 -20 0 -11 5
-20 10 -20 6 0 10 -13 10 -30 0 -16 5 -30 10 -30 6 0 10 -27 10 -60 0 -33 -4
-60 -10 -60 -5 0 -10 -9 -10 -20 0 -11 -4 -20 -10 -20 -5 0 -10 -8 -10 -18 0
-10 -9 -24 -20 -32 -11 -8 -20 -22 -20 -32 0 -10 -4 -18 -10 -18 -5 0 -10 -13
-10 -30 0 -16 -4 -30 -10 -30 -5 0 -10 -13 -10 -30 0 -16 -4 -30 -10 -30 -5 0
-10 -13 -10 -30 0 -16 -4 -30 -10 -30 -5 0 -10 -9 -10 -20 0 -11 -4 -20 -10
-20 -5 0 -10 -7 -10 -15 0 -20 -65 -85 -85 -85 -30 0 -17 -50 25 -90 22 -21
40 -46 40 -54 0 -9 5 -16 10 -16 6 0 10 -9 10 -20 0 -11 5 -20 10 -20 6 0 10
-13 10 -30 0 -16 5 -30 10 -30 6 0 10 -27 10 -60 0 -33 -4 -60 -10 -60 -5 0
-10 -13 -10 -30 0 -16 -4 -30 -10 -30 -5 0 -10 -18 -10 -40 0 -22 -4 -40 -10
-40 -5 0 -10 -13 -10 -30 0 -16 -4 -30 -10 -30 -5 0 -10 -9 -10 -20 0 -11 -4
-20 -10 -20 -5 0 -10 -9 -10 -20 0 -11 -4 -20 -10 -20 -5 0 -10 -7 -10 -16 0
-8 -27 -42 -60 -74 -33 -32 -60 -64 -60 -70 0 -15 -46 -60 -62 -60 -8 0 -20
-9 -28 -20 -8 -12 -26 -20 -42 -20 -15 0 -28 -4 -28 -10 0 -5 -13 -10 -30 -10
-16 0 -30 -4 -30 -10 0 -5 -22 -10 -50 -10 -27 0 -50 -4 -50 -10 0 -6 -27 -10
-60 -10 -51 0 -60 -3 -60 -18 0 -10 -9 -24 -20 -32 -11 -8 -20 -22 -20 -32 0
-10 -4 -18 -10 -18 -5 0 -10 -11 -10 -25 0 -29 -79 -115 -105 -115 -8 0 -15
-4 -15 -10 0 -5 -13 -10 -30 -10 -16 0 -30 -4 -30 -10 0 -5 -13 -10 -30 -10
-16 0 -30 -4 -30 -10 0 -5 -18 -10 -40 -10 -22 0 -40 -4 -40 -10 0 -6 -60 -10
-160 -10 -100 0 -160 4 -160 10 0 6 -13 10 -30 10 -16 0 -30 5 -30 10 0 6 -8
10 -18 10 -10 0 -24 9 -32 20 -8 11 -21 20 -30 20 -9 0 -22 9 -30 20 -15 21
-70 28 -70 10 0 -5 -9 -10 -20 -10 -11 0 -20 -4 -20 -10 0 -5 -8 -10 -18 -10
-10 0 -24 -9 -32 -20 -8 -11 -21 -20 -30 -20 -9 0 -22 -9 -30 -20 -8 -11 -22
-20 -32 -20 -10 0 -18 -4 -18 -10 0 -6 -33 -10 -80 -10 -47 0 -80 4 -80 10 0
6 -13 10 -30 10 -16 0 -30 5 -30 10 0 6 -13 10 -30 10 -16 0 -30 5 -30 10 0 6
-7 10 -15 10 -17 0 -165 144 -165 161 0 6 -18 28 -40 49 -26 25 -40 47 -40 64
0 14 -4 26 -10 26 -5 0 -10 -4 -10 -10 0 -5 -22 -10 -50 -10 -27 0 -50 -4 -50
-10 0 -6 -37 -10 -90 -10 -53 0 -90 4 -90 10 0 6 -13 10 -30 10 -16 0 -30 5
-30 10 0 6 -18 10 -40 10 -22 0 -40 5 -40 10 0 6 -9 10 -20 10 -11 0 -20 5
-20 10 0 6 -9 10 -20 10 -11 0 -20 5 -20 10 0 6 -9 10 -20 10 -11 0 -20 5 -20
10 0 6 -9 10 -20 10 -11 0 -20 5 -20 10 0 6 -7 10 -15 10 -20 0 -145 125 -145
145 0 8 -4 15 -10 15 -5 0 -10 13 -10 28 0 16 -8 34 -20 42 -11 8 -20 22 -20
32 0 10 -4 18 -10 18 -5 0 -10 14 -10 30 0 17 -4 30 -10 30 -5 0 -10 14 -10
30 0 29 -1 30 -50 30 -27 0 -50 5 -50 10 0 6 -30 10 -70 10 -40 0 -70 4 -70
10 0 6 -9 10 -20 10 -11 0 -20 5 -20 10 0 6 -7 10 -16 10 -9 0 -29 14 -44 30
-15 17 -34 30 -42 30 -7 0 -20 9 -28 20 -8 11 -20 20 -28 20 -17 0 -62 45 -62
62 0 8 -9 20 -20 28 -11 8 -20 21 -20 30 0 9 -9 22 -20 30 -11 8 -20 21 -20
30 0 9 -9 22 -20 30 -11 8 -20 22 -20 32 0 10 -4 18 -10 18 -6 0 -10 37 -10
90 0 53 4 90 10 90 6 0 10 9 10 20 0 13 -7 20 -20 20 -11 0 -20 5 -20 10 0 6
-8 10 -18 10 -10 0 -24 9 -32 20 -8 11 -20 20 -27 20 -19 0 -183 166 -183 185
0 8 -4 15 -10 15 -5 0 -10 9 -10 20 0 11 -4 20 -9 20 -5 0 -12 10 -14 22 -2
13 -5 -743 -6 -1679 l-1 -1703 4125 0 4125 0 0 1450 0 1450 -30 0 c-16 0 -30
-4 -30 -10 0 -6 -62 -10 -166 -10 l-166 0 -28 30 c-27 29 -60 40 -60 20 0 -5
-9 -10 -20 -10 -11 0 -20 -4 -20 -10 0 -5 -7 -10 -16 -10 -8 0 -37 -22 -64
-50 -27 -27 -56 -50 -64 -50 -9 0 -16 -4 -16 -10 0 -5 -9 -10 -20 -10 -11 0
-20 -4 -20 -10 0 -5 -18 -10 -40 -10 -22 0 -40 -4 -40 -10 0 -6 -40 -10 -100
-10 -60 0 -100 -4 -100 -10 0 -6 -30 -10 -70 -10 -40 0 -70 4 -70 10 0 6 -9
10 -20 10 -11 0 -20 5 -20 10 0 6 -22 10 -50 10 -27 0 -50 5 -50 10 0 6 -13
10 -30 10 -16 0 -30 5 -30 10 0 6 -7 10 -15 10 -20 0 -105 85 -105 105 0 8 -4
15 -10 15 -5 0 -10 14 -10 30 0 17 -4 30 -10 30 -5 0 -10 14 -10 30 0 17 -4
30 -10 30 -5 0 -10 9 -10 20 0 11 5 20 10 20 6 0 10 18 10 40 0 22 5 40 10 40
6 0 10 25 10 56 0 49 4 59 30 84 16 15 30 38 30 50 0 12 -14 35 -30 50 -17 15
-30 33 -30 39 0 16 -46 61 -62 61 -8 0 -20 9 -28 20 -8 11 -20 20 -27 20 -19
0 -103 86 -103 105 0 8 -4 15 -10 15 -5 0 -10 9 -10 20 0 11 -4 20 -10 20 -5
0 -10 14 -10 30 0 17 -4 30 -10 30 -6 0 -10 47 -10 120 0 73 4 120 10 120 6 0
10 9 10 20 0 11 5 20 10 20 6 0 10 8 10 18 0 10 9 24 20 32 11 8 20 20 20 28
0 16 24 42 40 42 6 0 18 7 26 15 14 13 8 22 -45 74 -34 33 -61 65 -61 71 0 6
-18 29 -40 50 -22 21 -40 44 -40 50 0 7 -14 25 -30 40 -16 15 -30 35 -30 44 0
9 -4 16 -10 16 -5 0 -10 9 -10 20 0 11 -4 20 -10 20 -5 0 -10 9 -10 20 0 11
-4 20 -10 20 -5 0 -10 14 -10 30 0 17 -4 30 -10 30 -5 0 -10 14 -10 30 0 17 5
30 10 30 6 0 10 8 10 18 0 10 9 24 20 32 11 8 20 22 20 32 0 10 5 18 10 18 6
0 10 7 10 16 0 18 -23 44 -40 44 -15 0 -120 107 -120 123 0 7 -9 19 -20 27
-12 8 -20 26 -20 42 0 15 -4 28 -10 28 -5 0 -10 8 -10 18 0 10 -9 24 -20 32
-11 8 -20 22 -20 32 0 10 -4 18 -10 18 -5 0 -10 14 -10 30 0 17 -4 30 -10 30
-6 0 -10 27 -10 60 0 33 4 60 10 60 6 0 10 9 10 20 0 11 7 20 15 20 23 0 85
66 85 90 0 21 -101 130 -120 130 -6 0 -33 23 -60 50 -27 28 -54 50 -60 50 -16
0 -40 26 -40 42 0 8 -9 20 -20 28 -12 8 -20 26 -20 42 0 15 -4 28 -10 28 -5 0
-10 9 -10 20 0 11 -4 20 -10 20 -5 0 -10 14 -10 30 0 17 -4 30 -10 30 -5 0
-10 14 -10 30 0 17 5 30 10 30 6 0 10 27 10 60 0 33 4 60 10 60 6 0 10 8 10
18 0 10 9 24 20 32 11 8 20 22 20 31 0 10 6 19 13 22 7 2 0 15 -21 34 -17 17
-32 36 -32 43 0 7 -14 25 -30 40 -16 15 -30 35 -30 44 0 9 -4 16 -10 16 -5 0
-10 8 -10 18 0 10 -9 24 -20 32 -11 8 -20 22 -20 32 0 10 -4 18 -10 18 -6 0
-10 33 -10 80 0 47 -4 80 -10 80 -5 0 -10 23 -10 50 0 28 -4 50 -10 50 -6 0
-10 43 -10 110 0 67 4 110 10 110 6 0 10 25 10 56 0 57 14 84 44 84 9 0 16 5
16 10 0 6 7 10 16 10 9 0 29 14 44 30 15 17 35 30 44 30 9 0 16 5 16 10 0 6 9
10 20 10 11 0 20 5 20 10 0 6 9 10 20 10 11 0 20 5 20 10 0 6 9 10 20 10 11 0
20 5 20 10 0 6 9 10 20 10 11 0 20 5 20 10 0 6 14 10 30 10 17 0 30 5 30 10 0
6 18 10 40 10 22 0 40 -4 40 -10 0 -5 14 -10 30 -10 17 0 30 -4 30 -10 0 -5 9
-10 20 -10 11 0 20 -4 20 -10 0 -5 9 -10 20 -10 11 0 20 -4 20 -10 0 -5 8 -10
18 -10 10 0 24 -9 32 -20 8 -11 20 -20 28 -20 17 0 82 -65 82 -82 0 -8 9 -20
20 -28 11 -8 20 -21 20 -28 0 -8 13 -27 30 -42 16 -15 30 -35 30 -44 0 -9 5
-16 10 -16 6 0 10 -9 10 -20 0 -11 5 -20 10 -20 6 0 10 -30 10 -70 0 -40 -4
-70 -10 -70 -5 0 -10 -16 -10 -36 0 -27 -7 -43 -30 -64 -17 -15 -30 -35 -30
-44 0 -9 -4 -16 -10 -16 -5 0 -10 -12 -10 -26 0 -16 -12 -37 -30 -54 -38 -35
-39 -60 -4 -60 16 0 37 -12 54 -30 15 -16 35 -30 44 -30 9 0 16 -7 16 -16 0
-8 27 -42 60 -74 33 -32 60 -64 60 -70 0 -6 18 -29 40 -50 22 -21 40 -46 40
-54 0 -9 5 -16 10 -16 6 0 10 -9 10 -20 0 -11 5 -20 10 -20 6 0 10 -18 10 -40
0 -22 5 -40 10 -40 6 0 10 -13 10 -30 0 -16 -4 -30 -10 -30 -6 0 -10 -27 -10
-60 0 -33 -4 -60 -10 -60 -5 0 -10 -12 -10 -26 0 -15 -9 -35 -21 -45 -19 -16
-20 -20 -6 -34 9 -8 23 -15 31 -15 9 0 16 -4 16 -10 0 -5 7 -10 15 -10 18 0
145 -124 145 -141 0 -6 13 -24 30 -39 17 -15 30 -35 30 -44 0 -9 5 -16 10 -16
6 0 10 -7 10 -16 0 -9 13 -29 30 -44 16 -15 30 -35 30 -44 0 -9 5 -16 10 -16
6 0 10 -13 10 -30 0 -16 5 -30 10 -30 6 0 10 -13 10 -30 0 -16 5 -30 10 -30 6
0 10 -13 10 -30 0 -16 -4 -30 -10 -30 -5 0 -10 -13 -10 -30 0 -16 -4 -30 -10
-30 -5 0 -10 -12 -10 -26 0 -16 -12 -37 -30 -54 -17 -15 -30 -33 -30 -40 0
-16 25 -40 42 -40 8 0 20 -9 28 -20 8 -11 20 -20 28 -20 18 0 62 -46 62 -65 0
-8 5 -15 10 -15 6 0 10 -13 10 -30 0 -16 5 -30 10 -30 6 0 10 -18 10 -40 0
-22 5 -40 10 -40 6 0 10 -22 10 -50 0 -27 5 -50 10 -50 6 0 10 -26 10 -58 0
-46 -4 -60 -20 -72 -11 -8 -20 -20 -20 -28 0 -16 -24 -42 -40 -42 -16 0 -60
-47 -60 -65 0 -8 -4 -15 -10 -15 -5 0 -10 -9 -10 -20 0 -13 7 -20 20 -20 11 0
20 -4 20 -10 0 -5 9 -10 20 -10 11 0 20 -4 20 -10 0 -5 14 -10 30 -10 17 0 30
-4 30 -10 0 -5 8 -10 18 -10 10 0 24 -9 32 -20 8 -11 20 -20 27 -20 19 0 163
-146 163 -165 0 -8 5 -15 10 -15 6 0 10 -9 10 -20 0 -11 5 -20 10 -20 6 0 10
-9 10 -20 0 -11 5 -20 10 -20 6 0 10 -13 10 -30 0 -16 5 -30 10 -30 6 0 10
-22 10 -50 0 -27 -4 -50 -10 -50 -5 0 -10 -16 -10 -36 0 -29 -8 -44 -51 -85
-45 -44 -49 -51 -35 -64 8 -8 26 -15 40 -15 14 0 26 -4 26 -10 0 -5 9 -10 20
-10 11 0 20 -4 20 -10 0 -5 7 -10 15 -10 19 0 65 44 65 62 0 8 9 20 20 28 11
8 20 20 20 27 0 19 86 103 105 103 8 0 15 5 15 10 0 6 9 10 20 10 11 0 20 5
20 10 0 6 9 10 20 10 11 0 20 5 20 10 0 6 9 10 20 10 11 0 20 5 20 10 0 6 14
10 30 10 17 0 30 5 30 10 0 6 14 10 30 10 17 0 30 5 30 10 0 6 27 10 60 10
l60 0 0 2185 0 2185 -4125 0 -4125 0 0 -989z m4390 -431 c0 -5 9 -10 20 -10
11 0 20 -4 20 -10 0 -5 7 -10 15 -10 9 0 47 -31 85 -70 38 -38 74 -70 81 -70
6 0 24 -13 39 -30 15 -16 33 -30 39 -30 17 0 61 -47 61 -65 0 -8 5 -15 10 -15
6 0 10 -13 10 -30 0 -16 5 -30 10 -30 6 0 10 -37 10 -90 0 -53 -4 -90 -10 -90
-5 0 -10 -9 -10 -20 0 -11 -4 -20 -10 -20 -5 0 -10 -18 -10 -40 0 -22 -4 -40
-10 -40 -5 0 -10 -13 -10 -30 0 -16 -4 -30 -10 -30 -5 0 -10 -11 -10 -25 0
-19 -27 -53 -105 -130 l-105 -105 -121 0 -121 0 -38 40 c-25 26 -47 40 -64 40
-14 0 -26 5 -26 10 0 6 -18 10 -40 10 -22 0 -40 5 -40 10 0 6 -7 10 -15 10
-20 0 -105 85 -105 105 0 8 -4 15 -10 15 -5 0 -10 14 -10 30 0 17 -4 30 -10
30 -5 0 -10 14 -10 30 0 17 -4 30 -10 30 -6 0 -10 50 -10 130 0 80 4 130 10
130 6 0 10 18 10 40 0 22 5 40 10 40 6 0 10 9 10 20 0 11 5 20 10 20 6 0 10 7
10 15 0 20 65 85 85 85 8 0 15 5 15 10 0 6 8 10 18 10 10 0 24 9 32 20 8 11
22 20 32 20 10 0 18 5 18 10 0 6 8 10 18 10 10 0 24 9 32 20 8 11 22 20 32 20
10 0 18 5 18 10 0 6 9 10 20 10 11 0 20 5 20 10 0 6 27 10 60 10 33 0 60 -4
60 -10z m-3215 -105 c27 -26 35 -43 35 -70 0 -19 5 -35 10 -35 6 0 10 -33 10
-80 0 -47 4 -80 10 -80 6 0 10 -7 10 -16 0 -42 65 -59 90 -24 24 33 90 19 90
-20 0 -16 -67 -80 -85 -80 -8 0 -15 -4 -15 -10 0 -5 -13 -10 -30 -10 -16 0
-30 5 -30 10 0 20 -33 9 -60 -20 -15 -16 -35 -30 -44 -30 -9 0 -16 -4 -16 -10
0 -5 -9 -10 -20 -10 -11 0 -20 -4 -20 -10 0 -6 -29 -10 -66 -10 -67 0 -94 13
-94 44 0 9 -4 16 -10 16 -5 0 -10 14 -10 30 0 17 5 30 10 30 6 0 10 9 10 20 0
11 5 20 10 20 6 0 10 7 10 15 0 20 65 85 85 85 8 0 15 5 15 10 0 6 9 10 20 10
11 0 20 5 20 10 0 6 9 10 20 10 17 0 20 7 20 40 0 22 -4 40 -10 40 -5 0 -10
14 -10 30 0 23 -4 30 -20 30 -15 0 -20 -7 -20 -26 0 -31 -21 -54 -50 -54 -30
0 -50 23 -50 60 0 39 57 100 95 100 14 0 25 5 25 10 0 21 32 9 65 -25z m-325
-175 c0 -5 12 -10 26 -10 34 0 54 -22 54 -60 0 -38 -20 -60 -54 -60 -19 0 -26
5 -26 20 0 13 -7 20 -20 20 -13 0 -20 -7 -20 -20 0 -11 -4 -20 -10 -20 -5 0
-10 -13 -10 -30 0 -16 5 -30 10 -30 6 0 10 -9 10 -20 0 -11 5 -20 10 -20 6 0
10 -13 10 -30 0 -16 5 -30 10 -30 6 0 10 -9 10 -20 0 -11 5 -20 10 -20 21 0 9
-32 -25 -66 l-35 -35 -25 25 c-14 14 -25 32 -25 41 0 8 -4 15 -10 15 -5 0 -10
8 -10 18 0 10 -9 24 -20 32 -12 8 -20 26 -20 42 0 15 -4 28 -10 28 -5 0 -10 7
-10 16 0 8 -18 33 -40 54 -42 40 -50 71 -26 96 17 16 66 19 66 4 0 -5 9 -10
19 -10 11 0 21 -6 24 -12 2 -8 20 4 45 30 22 23 48 42 56 42 9 0 16 5 16 10 0
6 5 10 10 10 6 0 10 -4 10 -10z m4180 -860 c0 -5 12 -10 26 -10 17 0 41 -16
74 -50 27 -27 54 -50 60 -50 16 0 80 -67 80 -85 0 -8 5 -15 10 -15 6 0 10 -13
10 -30 0 -16 5 -30 10 -30 6 0 10 -9 10 -20 0 -11 5 -20 10 -20 6 0 10 -9 10
-20 0 -11 5 -20 10 -20 6 0 10 -18 10 -40 0 -22 5 -40 10 -40 6 0 10 -18 10
-40 0 -22 -4 -40 -10 -40 -6 0 -10 -27 -10 -60 0 -33 -4 -60 -10 -60 -5 0 -10
-13 -10 -28 0 -16 -8 -34 -20 -42 -11 -8 -20 -18 -20 -22 0 -4 9 -8 20 -8 11
0 20 -4 20 -10 0 -5 7 -10 16 -10 9 0 29 -13 44 -30 15 -16 33 -30 39 -30 16
0 81 -66 81 -82 0 -8 9 -20 20 -28 11 -8 20 -21 20 -30 0 -9 9 -22 20 -30 11
-8 20 -22 20 -32 0 -10 5 -18 10 -18 6 0 10 -9 10 -20 0 -11 5 -20 10 -20 6 0
10 -9 10 -20 0 -11 5 -20 10 -20 6 0 10 -22 10 -50 0 -27 -4 -50 -10 -50 -5 0
-10 -18 -10 -40 0 -22 -4 -40 -10 -40 -6 0 -10 -47 -10 -120 0 -101 2 -120 15
-120 19 0 85 -64 85 -82 0 -8 9 -20 20 -28 11 -8 20 -22 20 -32 0 -10 5 -18
10 -18 6 0 10 -8 10 -18 0 -10 9 -24 20 -32 11 -8 20 -22 20 -32 0 -10 5 -18
10 -18 6 0 10 -9 10 -20 0 -11 5 -20 10 -20 6 0 10 -13 10 -30 0 -16 5 -30 10
-30 6 0 10 -9 10 -20 0 -11 5 -20 10 -20 6 0 10 -13 10 -30 0 -16 5 -30 10
-30 6 0 10 -50 10 -130 0 -80 -4 -130 -10 -130 -5 0 -10 -12 -10 -26 0 -17
-14 -39 -40 -64 -49 -47 -52 -70 -10 -70 17 0 30 -4 30 -10 0 -5 9 -10 20 -10
11 0 20 -4 20 -10 0 -5 7 -10 15 -10 19 0 125 -104 125 -123 0 -7 9 -19 20
-27 11 -8 20 -21 20 -30 0 -9 9 -22 20 -30 11 -8 20 -22 20 -32 0 -10 5 -18
10 -18 6 0 10 -18 10 -40 0 -22 5 -40 10 -40 6 0 10 -18 10 -40 0 -22 5 -40
10 -40 6 0 10 -18 10 -40 0 -22 5 -40 10 -40 6 0 10 -13 10 -30 0 -16 5 -30
10 -30 6 0 10 -30 10 -70 0 -40 -4 -70 -10 -70 -5 0 -10 -7 -10 -15 0 -20 -65
-85 -85 -85 -8 0 -15 -4 -15 -10 0 -5 -13 -10 -30 -10 -16 0 -30 -4 -30 -10 0
-6 -37 -10 -90 -10 -53 0 -90 -4 -90 -10 0 -5 -20 -10 -46 -10 -42 0 -49 -4
-104 -60 -32 -33 -66 -60 -74 -60 -9 0 -16 -4 -16 -10 0 -5 -9 -10 -20 -10
-11 0 -20 -4 -20 -10 0 -5 -9 -10 -20 -10 -11 0 -20 -4 -20 -10 0 -5 -18 -10
-40 -10 -22 0 -40 5 -40 10 0 6 -7 10 -15 10 -29 0 -85 67 -85 100 0 23 -11
42 -45 75 -24 25 -50 45 -58 45 -7 0 -19 9 -27 20 -8 11 -22 20 -32 20 -11 0
-18 7 -18 18 0 10 -9 24 -20 32 -11 8 -20 22 -20 32 0 10 -4 18 -10 18 -5 0
-10 14 -10 30 0 17 -4 30 -10 30 -5 0 -10 14 -10 30 0 17 -4 30 -10 30 -5 0
-10 14 -10 30 0 17 -4 30 -10 30 -5 0 -10 18 -10 40 0 22 5 40 10 40 6 0 10
27 10 60 0 33 4 60 10 60 6 0 10 13 10 28 0 16 8 34 20 42 11 8 20 20 20 28 0
7 -40 53 -90 102 -49 49 -90 95 -90 102 0 8 -9 20 -20 28 -11 8 -20 22 -20 32
0 10 -4 18 -10 18 -5 0 -10 9 -10 20 0 11 -4 20 -10 20 -5 0 -10 8 -10 18 0
10 -9 24 -20 32 -11 8 -20 22 -20 32 0 10 -4 18 -10 18 -5 0 -10 14 -10 30 0
17 -4 30 -10 30 -6 0 -10 27 -10 60 0 33 4 60 10 60 6 0 10 18 10 40 0 22 5
40 10 40 6 0 10 7 10 16 0 9 14 29 30 44 17 15 30 38 30 49 0 14 -30 51 -80
101 -44 44 -80 84 -80 91 0 6 -13 24 -30 39 -16 15 -30 34 -30 42 0 7 -9 20
-20 28 -11 8 -20 22 -20 32 0 10 -4 18 -10 18 -5 0 -10 14 -10 30 0 17 -4 30
-10 30 -5 0 -10 14 -10 30 0 17 -4 30 -10 30 -6 0 -10 27 -10 60 0 33 -4 60
-10 60 -6 0 -10 29 -10 66 0 55 4 70 21 85 19 16 20 20 6 34 -9 8 -23 15 -31
15 -9 0 -16 5 -16 10 0 6 -7 10 -15 10 -27 0 -145 127 -145 155 0 14 -4 25
-10 25 -5 0 -10 9 -10 20 0 11 -4 20 -10 20 -5 0 -10 9 -10 20 0 11 -4 20 -10
20 -5 0 -10 9 -10 20 0 11 -4 20 -10 20 -5 0 -10 23 -10 50 0 28 -4 50 -10 50
-5 0 -10 23 -10 50 0 28 5 50 10 50 6 0 10 27 10 60 0 33 4 60 10 60 6 0 10 9
10 20 0 11 5 20 10 20 6 0 10 9 10 20 0 11 5 20 10 20 6 0 10 7 10 15 0 18
144 165 161 165 6 0 24 14 39 30 15 17 33 30 40 30 7 0 25 14 40 30 15 17 35
30 44 30 9 0 16 5 16 10 0 6 9 10 20 10 11 0 20 5 20 10 0 6 53 10 140 10 87
0 140 -4 140 -10z m-114 -3304 c18 -19 18 -26 -2 -26 -15 0 -44 23 -44 34 0
12 32 6 46 -8z m-86 -26 c0 -11 -4 -20 -10 -20 -5 0 -10 9 -10 20 0 11 5 20
10 20 6 0 10 -9 10 -20z m120 -50 c0 -5 -4 -10 -10 -10 -5 0 -10 5 -10 10 0 6
5 10 10 10 6 0 10 -4 10 -10z m-140 -20 c0 -5 -4 -10 -10 -10 -5 0 -10 5 -10
10 0 6 5 10 10 10 6 0 10 -4 10 -10z m120 -58 c0 -4 -9 -14 -20 -22 -26 -19
-25 -38 2 -61 11 -11 18 -22 13 -27 -4 -4 -10 -1 -12 6 -3 6 -13 12 -24 12
-16 0 -19 7 -19 40 0 33 3 40 20 40 11 0 20 5 20 10 0 6 5 10 10 10 6 0 10 -4
10 -8z m-20 -152 c0 -11 -4 -20 -10 -20 -5 0 -10 9 -10 20 0 11 5 20 10 20 6
0 10 -9 10 -20z m-560 -260 c0 -11 5 -20 10 -20 6 0 10 -9 10 -20 0 -13 -7
-20 -20 -20 -16 0 -20 -7 -20 -35 0 -43 37 -85 75 -85 14 0 25 -4 25 -10 0 -5
-13 -10 -30 -10 -23 0 -30 -4 -30 -20 0 -13 -7 -20 -20 -20 -11 0 -20 5 -20
10 0 6 -9 10 -20 10 -11 0 -20 4 -20 8 0 4 9 14 20 22 21 15 28 50 10 50 -5 0
-10 8 -10 18 0 10 -9 24 -20 32 -15 11 -20 26 -20 62 l0 48 40 0 c33 0 40 -3
40 -20z m540 -55 c0 -20 -45 -65 -65 -65 -10 0 -15 -10 -15 -30 0 -16 -4 -30
-10 -30 -5 0 -10 5 -10 10 0 6 -4 10 -10 10 -5 0 -10 -9 -10 -20 0 -16 -7 -20
-36 -20 -25 0 -43 -7 -57 -22 -13 -16 -21 -19 -24 -10 -3 6 -13 12 -24 12 -10
0 -19 5 -19 10 0 6 9 10 20 10 11 0 20 5 20 10 0 6 18 10 40 10 38 0 40 2 40
30 0 21 5 30 16 30 9 0 29 14 44 30 17 18 38 30 54 30 14 0 26 5 26 10 0 6 5
10 10 10 6 0 10 -7 10 -15z m-282 -172 c17 -17 22 -28 14 -31 -7 -2 -12 -12
-12 -23 0 -10 -4 -19 -10 -19 -5 0 -10 -13 -10 -30 0 -16 -4 -30 -10 -30 -6 0
-10 33 -10 80 0 44 2 80 5 80 3 0 18 -12 33 -27z m202 7 c0 -11 5 -20 10 -20
6 0 10 -13 10 -30 0 -34 -5 -37 -26 -16 -16 16 -19 86 -4 86 6 0 10 -9 10 -20z
m-440 -76 c0 -20 24 -44 44 -44 9 0 16 -8 16 -20 0 -12 -7 -20 -16 -20 -20 0
-44 24 -44 44 0 9 -8 16 -20 16 -13 0 -20 7 -20 20 0 13 7 20 20 20 12 0 20
-7 20 -16z m-32 -61 c12 -12 13 -18 4 -21 -6 -2 -12 -12 -12 -23 0 -10 -4 -19
-10 -19 -5 0 -10 18 -10 40 0 44 4 48 28 23z"/>
<path d="M4240 6720 c-8 -11 -22 -20 -32 -20 -10 0 -18 -4 -18 -10 0 -5 -7
-10 -16 -10 -9 0 -29 -13 -44 -30 -15 -16 -35 -30 -44 -30 -9 0 -16 -4 -16
-10 0 -5 -7 -10 -15 -10 -25 0 -65 -46 -65 -75 0 -14 -4 -25 -10 -25 -6 0 -10
-30 -10 -70 0 -40 -4 -70 -10 -70 -6 0 -10 -27 -10 -60 0 -33 4 -60 10 -60 6
0 10 -13 10 -30 0 -16 5 -30 10 -30 6 0 10 -13 10 -30 0 -16 5 -30 10 -30 6 0
10 -7 10 -15 0 -20 45 -65 65 -65 8 0 15 -4 15 -10 0 -6 30 -10 70 -10 40 0
70 -4 70 -10 0 -5 9 -10 20 -10 12 0 20 -7 20 -16 0 -20 24 -44 44 -44 9 0 16
-4 16 -10 0 -6 28 -10 65 -10 l65 0 85 85 c47 47 85 92 85 100 0 8 5 15 10 15
6 0 10 18 10 40 0 22 5 40 10 40 6 0 10 14 10 30 0 17 5 30 10 30 6 0 10 43
10 110 0 67 -4 110 -10 110 -5 0 -10 7 -10 16 0 19 -24 44 -42 44 -8 0 -20 9
-28 20 -8 11 -20 20 -28 20 -7 0 -48 36 -92 80 l-79 80 -73 0 c-62 0 -76 -3
-88 -20z"/>
<path d="M1130 6430 c0 -5 -7 -10 -15 -10 -18 0 -105 -84 -105 -100 0 -17 26
-40 44 -40 9 0 16 5 16 10 0 6 12 10 26 10 29 0 54 21 54 44 0 9 5 16 10 16
15 0 12 49 -4 66 -17 16 -26 18 -26 4z"/>
<path d="M4810 5610 c0 -5 -16 -10 -36 -10 -27 0 -43 -7 -64 -30 -15 -16 -33
-30 -40 -30 -7 0 -25 -13 -40 -30 -15 -16 -33 -30 -39 -30 -17 0 -161 -147
-161 -165 0 -8 -4 -15 -10 -15 -5 0 -10 -13 -10 -30 0 -16 -4 -30 -10 -30 -6
0 -10 -47 -10 -120 0 -73 4 -120 10 -120 6 0 10 -13 10 -30 0 -16 5 -30 10
-30 6 0 10 -9 10 -20 0 -11 5 -20 10 -20 6 0 10 -9 10 -20 0 -11 5 -20 10 -20
6 0 10 -7 10 -15 0 -20 85 -105 105 -105 8 0 15 -4 15 -10 0 -5 9 -10 20 -10
11 0 20 -4 20 -10 0 -5 9 -10 20 -10 11 0 20 -4 20 -10 0 -5 7 -10 15 -10 22
0 73 -52 57 -58 -7 -2 -12 -10 -12 -19 0 -8 -19 -33 -42 -55 -26 -25 -38 -43
-30 -45 8 -3 12 -27 12 -74 0 -39 4 -69 10 -69 6 0 10 -13 10 -30 0 -16 5 -30
10 -30 6 0 10 -13 10 -30 0 -16 5 -30 10 -30 6 0 10 -8 10 -18 0 -10 9 -24 20
-32 11 -8 20 -21 20 -30 0 -9 9 -22 20 -30 11 -8 20 -20 20 -28 0 -15 65 -82
80 -82 15 0 40 -25 40 -40 0 -6 23 -33 50 -60 39 -38 50 -56 50 -80 0 -32 -19
-60 -40 -60 -16 0 -60 -47 -60 -65 0 -8 -4 -15 -10 -15 -5 0 -10 -18 -10 -40
0 -22 -4 -40 -10 -40 -5 0 -10 -9 -10 -20 0 -11 5 -20 10 -20 6 0 10 -13 10
-30 0 -16 5 -30 10 -30 6 0 10 -9 10 -20 0 -11 5 -20 10 -20 6 0 10 -9 10 -20
0 -11 5 -20 10 -20 6 0 10 -9 10 -20 0 -11 5 -20 10 -20 6 0 10 -8 10 -18 0
-10 9 -24 20 -32 11 -8 20 -20 20 -27 0 -16 225 -243 241 -243 14 0 39 -25 39
-40 0 -19 -48 -60 -70 -60 -25 0 -50 -22 -50 -44 0 -9 -4 -16 -10 -16 -6 0
-10 -37 -10 -90 0 -53 4 -90 10 -90 6 0 10 -13 10 -30 0 -16 5 -30 10 -30 6 0
10 -13 10 -30 0 -16 5 -30 10 -30 6 0 10 -9 10 -20 0 -11 5 -20 10 -20 6 0 10
-9 10 -20 0 -13 7 -20 20 -20 11 0 20 -4 20 -10 0 -5 7 -10 16 -10 9 0 29 -13
44 -30 17 -18 38 -30 54 -30 19 0 26 -5 26 -20 0 -11 5 -20 10 -20 6 0 10 -21
10 -46 0 -26 6 -51 14 -60 17 -16 106 -20 106 -4 0 6 7 10 16 10 8 0 42 27 74
60 32 33 66 60 74 60 9 0 16 5 16 10 0 6 14 10 30 10 17 0 30 5 30 10 0 6 40
10 100 10 60 0 100 4 100 10 0 6 14 10 30 10 17 0 30 5 30 10 0 6 7 10 16 10
33 0 44 26 44 104 0 44 -4 76 -10 76 -5 0 -10 14 -10 30 0 17 -4 30 -10 30 -5
0 -10 23 -10 50 0 28 -4 50 -10 50 -5 0 -10 18 -10 40 0 22 -4 40 -10 40 -5 0
-10 9 -10 20 0 11 -4 20 -10 20 -5 0 -10 7 -10 16 0 9 -13 29 -30 44 -16 15
-30 33 -30 39 0 17 -87 101 -105 101 -8 0 -15 5 -15 10 0 6 -18 10 -40 10 -22
0 -40 -4 -40 -10 0 -5 -13 -10 -30 -10 -23 0 -30 5 -30 19 0 11 -6 22 -12 25
-10 5 -10 7 0 12 6 3 12 23 12 45 0 21 5 39 10 39 6 0 10 12 10 26 0 26 20 54
40 54 22 0 40 29 40 64 0 20 5 36 10 36 6 0 10 14 10 30 0 17 -4 30 -10 30 -6
0 -10 33 -10 80 0 47 -4 80 -10 80 -5 0 -10 14 -10 30 0 17 -4 30 -10 30 -5 0
-10 14 -10 30 0 17 -4 30 -10 30 -5 0 -10 8 -10 18 0 10 -9 24 -20 32 -11 8
-20 21 -20 30 0 9 -9 22 -20 30 -11 8 -20 22 -20 32 0 10 -4 18 -10 18 -5 0
-10 7 -10 15 0 9 -11 27 -25 40 -20 21 -34 25 -80 25 -30 0 -55 5 -55 10 0 6
-7 10 -16 10 -23 0 -44 25 -44 54 0 23 4 26 36 26 36 0 81 29 56 38 -15 5 -17
102 -2 102 6 0 10 27 10 60 0 33 4 60 10 60 6 0 10 18 10 40 0 22 5 40 10 40
6 0 10 9 10 20 0 11 -4 20 -10 20 -5 0 -10 8 -10 18 0 10 -9 24 -20 32 -11 8
-20 22 -20 32 0 10 -4 18 -10 18 -5 0 -10 8 -10 18 0 10 -9 24 -20 32 -11 8
-20 20 -20 28 0 17 -65 82 -82 82 -8 0 -20 9 -28 20 -8 11 -22 20 -32 20 -10
0 -18 5 -18 10 0 6 -9 10 -20 10 -11 0 -20 -4 -20 -10 0 -15 -29 -12 -46 4 -8
8 -14 22 -14 30 0 9 -4 16 -10 16 -5 0 -10 9 -10 20 0 11 5 20 10 20 6 0 10 7
10 16 0 9 14 29 30 44 18 17 30 38 30 54 0 14 5 26 10 26 6 0 10 40 10 100 0
60 -4 100 -10 100 -5 0 -10 9 -10 20 0 11 -4 20 -10 20 -5 0 -10 14 -10 30 0
17 -4 30 -10 30 -5 0 -10 9 -10 20 0 11 -4 20 -10 20 -5 0 -10 7 -10 15 0 18
-44 65 -60 65 -7 0 -29 18 -50 40 -34 35 -44 40 -84 40 -25 0 -46 5 -46 10 0
6 -30 10 -70 10 -40 0 -70 -4 -70 -10z"/>
<path d="M4310 1790 c0 -5 5 -10 10 -10 6 0 10 5 10 10 0 6 -4 10 -10 10 -5 0
-10 -4 -10 -10z"/>
<path d="M4830 1730 c0 -5 5 -10 10 -10 6 0 10 5 10 10 0 6 -4 10 -10 10 -5 0
-10 -4 -10 -10z"/>
<path d="M6090 7250 c0 -5 -9 -10 -20 -10 -11 0 -20 -4 -20 -10 0 -5 -9 -10
-20 -10 -11 0 -20 -4 -20 -10 0 -5 -9 -10 -20 -10 -11 0 -20 -4 -20 -10 0 -5
-9 -10 -20 -10 -11 0 -20 -4 -20 -10 0 -5 -8 -10 -18 -10 -10 0 -24 -9 -32
-20 -8 -11 -22 -20 -32 -20 -10 0 -18 -4 -18 -10 0 -5 -9 -10 -20 -10 -18 0
-20 -7 -20 -70 0 -40 -4 -70 -10 -70 -6 0 -10 -27 -10 -60 0 -33 4 -60 10 -60
6 0 10 -18 10 -40 0 -36 2 -40 26 -40 51 0 74 -61 34 -90 -11 -8 -20 -22 -20
-32 0 -10 -4 -18 -10 -18 -5 0 -10 -9 -10 -20 0 -11 5 -20 10 -20 6 0 10 -8
10 -18 0 -10 9 -24 20 -32 11 -8 20 -22 20 -32 0 -10 5 -18 10 -18 6 0 10 -8
10 -18 0 -10 9 -24 20 -32 11 -8 20 -20 20 -28 0 -15 65 -82 80 -82 19 0 40
-27 40 -50 0 -12 -21 -42 -50 -70 -27 -27 -50 -56 -50 -64 0 -9 -4 -16 -10
-16 -6 0 -10 -33 -10 -80 0 -47 4 -80 10 -80 6 0 10 -13 10 -30 0 -16 5 -30
10 -30 6 0 10 -9 10 -20 0 -11 5 -20 10 -20 6 0 10 -7 10 -16 0 -18 23 -44 40
-44 6 0 33 -22 60 -50 27 -27 54 -50 60 -50 6 0 38 -27 70 -60 32 -33 64 -60
70 -60 14 0 60 -46 60 -60 0 -6 -40 -51 -90 -100 -81 -81 -108 -120 -80 -120
6 0 10 -13 10 -30 0 -16 5 -30 10 -30 6 0 10 -9 10 -20 0 -11 5 -20 10 -20 6
0 10 -9 10 -20 0 -11 5 -20 10 -20 6 0 10 -9 10 -20 0 -11 5 -20 10 -20 6 0
10 -8 10 -18 0 -10 9 -24 20 -32 11 -8 20 -20 20 -28 0 -15 65 -82 80 -82 6 0
33 -22 60 -50 27 -27 54 -50 60 -50 20 0 40 -28 40 -54 0 -24 -4 -26 -40 -26
-22 0 -40 -4 -40 -10 0 -5 -9 -10 -20 -10 -13 0 -20 -7 -20 -20 0 -11 -4 -20
-10 -20 -5 0 -10 -22 -10 -50 0 -27 5 -50 10 -50 6 0 10 -8 10 -18 0 -10 9
-24 20 -32 11 -8 20 -21 20 -30 0 -9 9 -22 20 -30 11 -8 20 -20 20 -28 0 -7
27 -40 60 -72 33 -32 60 -64 60 -70 0 -16 128 -140 145 -140 8 0 15 -9 15 -19
0 -11 6 -21 12 -23 28 -10 -21 -38 -64 -38 -32 0 -47 -5 -58 -20 -8 -11 -22
-20 -32 -20 -11 0 -18 -7 -18 -18 0 -10 -9 -24 -20 -32 -12 -8 -20 -26 -20
-42 0 -15 -4 -28 -10 -28 -5 0 -10 -13 -10 -30 0 -16 5 -30 10 -30 6 0 10 -33
10 -80 0 -47 4 -80 10 -80 6 0 10 -9 10 -20 0 -11 5 -20 10 -20 6 0 10 -7 10
-15 0 -19 44 -65 62 -65 8 0 20 -9 28 -20 8 -11 20 -20 28 -20 15 0 82 -65 82
-80 0 -16 67 -80 85 -80 8 0 15 -4 15 -10 0 -5 7 -10 16 -10 22 0 44 -25 44
-50 0 -27 -23 -50 -50 -50 -11 0 -36 -16 -55 -35 -32 -31 -35 -40 -35 -90 0
-30 -4 -55 -10 -55 -6 0 -10 -27 -10 -60 0 -33 4 -60 10 -60 6 0 10 -11 10
-25 0 -17 15 -41 45 -70 40 -40 49 -45 90 -45 25 0 45 -4 45 -10 0 -5 14 -10
30 -10 17 0 30 -4 30 -10 0 -5 14 -10 30 -10 17 0 30 -4 30 -10 0 -5 14 -10
30 -10 17 0 30 5 30 10 0 6 43 10 110 10 67 0 110 4 110 10 0 6 14 10 30 10
17 0 30 5 30 10 0 6 9 10 20 10 11 0 20 5 20 10 0 6 7 10 16 10 8 0 37 23 64
50 27 28 56 50 64 50 9 0 16 5 16 10 0 6 14 10 30 10 l30 0 0 60 0 60 36 0
c38 0 64 -18 64 -44 0 -9 5 -16 10 -16 6 0 10 -16 10 -36 0 -59 12 -64 164
-64 84 0 136 4 136 10 0 6 9 10 20 10 11 0 20 5 20 10 0 6 9 10 20 10 20 0 20
7 20 390 l0 390 -29 0 c-16 0 -32 6 -35 13 -5 10 -7 10 -12 0 -3 -7 -23 -13
-45 -13 -21 0 -39 -4 -39 -10 0 -5 -9 -10 -20 -10 -11 0 -20 -4 -20 -10 0 -5
-9 -10 -20 -10 -11 0 -20 -4 -20 -10 0 -5 -9 -10 -20 -10 -11 0 -20 -4 -20
-10 0 -5 -9 -10 -20 -10 -11 0 -20 -4 -20 -10 0 -5 -7 -10 -15 -10 -20 0 -85
-65 -85 -85 0 -8 -4 -15 -10 -15 -5 0 -10 -8 -10 -18 0 -10 -9 -24 -20 -32
-11 -8 -20 -20 -20 -28 0 -21 -67 -82 -91 -82 -11 0 -34 14 -49 30 -15 17 -35
30 -44 30 -9 0 -16 5 -16 10 0 6 -9 10 -20 10 -11 0 -20 5 -20 10 0 6 -9 10
-20 10 -11 0 -20 5 -20 10 0 6 -7 10 -15 10 -23 0 -65 46 -65 70 0 23 22 50
40 50 6 0 31 20 55 45 36 35 45 51 45 79 0 19 6 37 13 40 10 5 10 7 0 12 -7 3
-13 19 -13 35 0 16 -4 29 -10 29 -5 0 -10 13 -10 28 0 16 -8 34 -20 42 -11 8
-20 20 -20 27 0 19 -126 143 -145 143 -8 0 -15 5 -15 10 0 6 -9 10 -20 10 -11
0 -20 5 -20 10 0 6 -9 10 -20 10 -11 0 -20 5 -20 10 0 6 -13 10 -30 10 -16 0
-30 5 -30 10 0 6 -12 10 -26 10 -29 0 -54 21 -54 44 0 9 -4 16 -10 16 -5 0
-10 9 -10 20 0 11 5 20 10 20 6 0 10 14 10 30 0 17 5 30 10 30 6 0 10 9 10 20
0 11 5 20 10 20 6 0 10 7 10 16 0 22 25 44 50 44 25 0 50 22 50 43 0 9 6 18
13 21 10 5 10 7 0 12 -8 4 -13 27 -13 65 0 33 -4 59 -10 59 -5 0 -10 18 -10
40 0 22 -4 40 -10 40 -5 0 -10 14 -10 30 0 17 -4 30 -10 30 -5 0 -10 7 -10 16
0 20 -24 44 -44 44 -9 0 -16 5 -16 10 0 6 -9 10 -20 10 -11 0 -20 5 -20 10 0
6 -9 10 -20 10 -11 0 -20 5 -20 10 0 6 -22 10 -50 10 l-50 0 0 35 c0 38 36 85
65 85 8 0 15 7 15 16 0 20 24 44 44 44 11 0 16 9 16 30 0 17 5 30 10 30 6 0
10 27 10 60 0 33 -4 60 -10 60 -5 0 -10 9 -10 20 0 11 -4 20 -10 20 -5 0 -10
8 -10 18 0 10 -9 24 -20 32 -11 8 -20 21 -20 30 0 9 -9 22 -20 30 -11 8 -20
21 -20 30 0 9 -9 22 -20 30 -11 8 -20 20 -20 27 0 8 -29 43 -65 78 -60 61 -68
65 -110 65 -25 0 -45 5 -45 10 0 6 -7 10 -16 10 -8 0 -22 6 -30 14 -16 17 -19
66 -4 66 6 0 10 7 10 16 0 9 14 29 30 44 18 17 30 38 30 54 0 14 5 26 10 26 6
0 10 37 10 90 0 53 -4 90 -10 90 -5 0 -10 9 -10 20 0 11 -4 20 -10 20 -5 0
-10 7 -10 16 0 8 -18 33 -40 54 -22 21 -40 43 -40 49 0 6 -38 49 -85 96 -79
79 -88 85 -126 85 -22 0 -47 6 -55 14 -16 17 -20 106 -4 106 6 0 10 7 10 16 0
9 14 29 30 44 18 17 30 38 30 54 0 14 5 26 10 26 6 0 10 7 10 16 0 9 14 29 30
44 23 21 30 37 30 64 0 20 5 36 10 36 6 0 10 16 10 36 0 27 -7 43 -30 64 -16
15 -30 34 -30 42 0 7 -9 20 -20 28 -11 8 -20 20 -20 27 0 19 -126 143 -145
143 -8 0 -15 5 -15 10 0 6 -9 10 -20 10 -11 0 -20 5 -20 10 0 6 -9 10 -20 10
-11 0 -20 5 -20 10 0 6 -27 10 -60 10 -33 0 -60 -4 -60 -10z"/>
<path d="M463 6225 c-7 -8 -13 -26 -13 -40 0 -14 -4 -25 -10 -25 -15 0 -12
-49 4 -66 8 -8 22 -14 30 -14 9 0 16 -4 16 -10 0 -15 29 -12 46 4 8 8 14 33
14 56 0 33 -6 47 -35 75 -39 40 -36 39 -52 20z"/>
<path d="M0 6120 c0 -37 2 -40 15 -26 8 8 15 20 15 26 0 6 -7 18 -15 26 -13
14 -15 11 -15 -26z"/>
<path d="M103 6025 c-7 -8 -13 -21 -13 -30 0 -8 -4 -15 -10 -15 -5 0 -10 -9
-10 -20 0 -11 5 -20 10 -20 6 0 10 -9 10 -20 0 -11 5 -20 10 -20 6 0 10 -7 10
-16 0 -8 7 -22 15 -30 13 -14 17 -14 30 0 8 8 15 21 15 28 0 8 9 20 20 28 11
8 20 22 20 32 0 10 5 18 10 18 6 0 10 18 10 40 l0 40 -57 0 c-37 -1 -63 -6
-70 -15z"/>
<path d="M1750 5870 c0 -5 -9 -10 -20 -10 -11 0 -20 -4 -20 -10 0 -5 -9 -10
-20 -10 -11 0 -20 -4 -20 -10 0 -5 -9 -10 -20 -10 -11 0 -20 -4 -20 -10 0 -5
-8 -10 -18 -10 -10 0 -24 -9 -32 -20 -8 -11 -22 -20 -32 -20 -10 0 -18 -7 -18
-16 0 -9 -13 -29 -30 -44 -16 -15 -30 -35 -30 -44 0 -12 -10 -16 -36 -16 -27
0 -43 7 -64 30 -27 29 -31 30 -114 30 -51 0 -86 -4 -86 -10 0 -5 -22 -10 -50
-10 -27 0 -50 5 -50 10 0 6 -43 10 -110 10 -67 0 -110 -4 -110 -10 0 -5 -13
-10 -30 -10 -16 0 -30 -4 -30 -10 0 -5 -13 -10 -30 -10 -16 0 -30 -4 -30 -10
0 -5 -9 -10 -20 -10 -11 0 -20 -4 -20 -10 0 -5 -7 -10 -15 -10 -20 0 -125
-105 -125 -125 0 -8 -4 -15 -10 -15 -6 0 -10 -60 -10 -160 0 -100 4 -160 10
-160 6 0 10 -25 10 -56 0 -62 -14 -84 -54 -84 -14 0 -26 -4 -26 -10 0 -5 -18
-10 -40 -10 -22 0 -40 -4 -40 -10 0 -5 -13 -10 -30 -10 -16 0 -30 -4 -30 -10
0 -5 -7 -10 -15 -10 -18 0 -65 -44 -65 -60 0 -6 -40 -51 -90 -100 -66 -66 -90
-96 -90 -115 0 -14 -4 -25 -10 -25 -6 0 -10 -33 -10 -80 0 -47 4 -80 10 -80 6
0 10 -22 10 -50 0 -27 5 -50 10 -50 6 0 10 -9 10 -20 0 -11 5 -20 10 -20 6 0
10 -9 10 -20 0 -11 5 -20 10 -20 6 0 10 -8 10 -18 0 -10 9 -24 20 -32 11 -8
20 -21 20 -30 0 -9 9 -22 20 -30 13 -9 20 -26 20 -48 0 -38 -19 -62 -50 -62
-29 0 -90 -63 -90 -95 0 -14 -4 -25 -10 -25 -5 0 -10 -18 -10 -40 0 -22 -4
-40 -10 -40 -6 0 -10 -67 -10 -180 0 -113 4 -180 10 -180 6 0 10 -13 10 -30 0
-16 5 -30 10 -30 6 0 10 -13 10 -30 0 -16 5 -30 10 -30 6 0 10 -8 10 -18 0
-10 9 -24 20 -32 11 -8 20 -20 20 -27 0 -19 146 -163 165 -163 8 0 15 -4 15
-10 0 -5 9 -10 20 -10 11 0 20 -4 20 -10 0 -5 23 -10 50 -10 28 0 50 -4 50
-10 0 -5 9 -10 20 -10 17 0 20 -7 20 -40 0 -30 -4 -40 -16 -40 -20 0 -44 -24
-44 -44 0 -9 -4 -16 -10 -16 -5 0 -10 -22 -10 -50 0 -27 5 -50 10 -50 6 0 10
-8 10 -18 0 -10 9 -24 20 -32 11 -8 20 -22 20 -32 0 -10 5 -18 10 -18 6 0 10
-8 10 -18 0 -10 9 -24 20 -32 11 -8 20 -20 20 -28 0 -17 45 -62 62 -62 8 0 20
-9 28 -20 8 -11 21 -20 30 -20 9 0 22 -9 30 -20 8 -11 22 -20 32 -20 10 0 18
-4 18 -10 0 -5 9 -10 20 -10 11 0 20 -4 20 -10 0 -6 30 -10 70 -10 40 0 70 -4
70 -10 0 -5 18 -10 40 -10 22 0 40 5 40 10 0 18 31 10 55 -15 22 -21 25 -33
25 -90 0 -37 4 -65 10 -65 6 0 10 -9 10 -20 0 -11 5 -20 10 -20 6 0 10 -9 10
-20 0 -11 5 -20 10 -20 6 0 10 -9 10 -20 0 -11 5 -20 10 -20 6 0 10 -7 10 -15
0 -20 105 -125 125 -125 8 0 15 -4 15 -10 0 -5 9 -10 20 -10 11 0 20 -4 20
-10 0 -5 9 -10 20 -10 11 0 20 -4 20 -10 0 -5 14 -10 30 -10 17 0 30 -4 30
-10 0 -5 14 -10 30 -10 17 0 30 -4 30 -10 0 -5 18 -10 40 -10 22 0 40 -4 40
-10 0 -5 23 -10 50 -10 28 0 50 5 50 10 0 6 23 10 50 10 28 0 50 5 50 10 0 6
30 10 70 10 l70 0 0 -46 c0 -40 5 -50 40 -84 22 -21 40 -43 40 -49 0 -17 107
-121 125 -121 8 0 15 -4 15 -10 0 -5 9 -10 20 -10 11 0 20 -4 20 -10 0 -5 18
-10 40 -10 22 0 40 -4 40 -10 0 -5 18 -10 40 -10 22 0 40 5 40 10 0 6 9 10 20
10 11 0 20 5 20 10 0 6 8 10 18 10 10 0 24 9 32 20 8 11 21 20 30 20 9 0 22 9
30 20 8 11 22 20 32 20 10 0 18 5 18 10 0 6 9 10 20 10 11 0 20 5 20 10 0 6
16 10 36 10 28 0 43 -8 74 -40 21 -22 46 -40 54 -40 9 0 16 -4 16 -10 0 -5 9
-10 20 -10 11 0 20 -4 20 -10 0 -5 14 -10 30 -10 17 0 30 -4 30 -10 0 -6 47
-10 120 -10 73 0 120 4 120 10 0 6 18 10 40 10 22 0 40 5 40 10 0 6 18 10 40
10 22 0 40 5 40 10 0 6 9 10 20 10 11 0 20 5 20 10 0 6 7 10 15 10 20 0 65 45
65 65 0 8 5 15 10 15 6 0 10 9 10 20 0 11 5 20 10 20 6 0 10 9 10 20 0 11 5
20 10 20 6 0 10 7 10 15 0 9 16 31 35 50 l34 35 106 0 c63 0 105 4 105 10 0 6
14 10 30 10 17 0 30 5 30 10 0 6 8 10 18 10 10 0 24 9 32 20 8 11 22 20 32 20
10 0 18 7 18 16 0 8 27 42 60 74 33 32 60 66 60 74 0 9 5 16 10 16 6 0 10 8
10 18 0 10 9 24 20 32 14 10 20 26 20 52 0 21 5 38 10 38 6 0 10 18 10 40 0
22 5 40 10 40 6 0 10 9 10 20 0 11 5 20 10 20 6 0 10 14 10 30 0 17 -4 30 -10
30 -5 0 -10 14 -10 30 0 17 -4 30 -10 30 -5 0 -10 9 -10 20 0 11 -4 20 -10 20
-5 0 -10 7 -10 16 0 20 -24 44 -44 44 -9 0 -16 8 -16 20 0 11 -4 20 -10 20 -5
0 -10 14 -10 30 0 17 -4 30 -10 30 -16 0 -12 89 4 106 18 17 43 18 48 2 6 -16
78 56 78 77 0 8 5 15 10 15 6 0 10 14 10 30 0 17 5 30 10 30 6 0 10 18 10 40
0 22 5 40 10 40 6 0 10 14 10 30 0 17 5 30 10 30 6 0 10 7 10 16 0 9 14 29 30
44 17 15 30 35 30 44 0 9 5 16 10 16 6 0 10 18 10 40 0 22 -4 40 -10 40 -5 0
-10 9 -10 20 0 11 -4 20 -10 20 -5 0 -10 9 -10 20 0 11 -4 20 -10 20 -5 0 -10
8 -10 18 0 10 -9 24 -20 32 -11 8 -20 20 -20 27 0 19 -86 103 -105 103 -8 0
-15 5 -15 10 0 6 -9 10 -20 10 -11 0 -20 5 -20 10 0 6 -18 10 -40 10 -22 0
-40 5 -40 10 0 6 -13 10 -30 10 -16 0 -30 5 -30 10 0 6 -50 10 -130 10 l-130
0 0 -26 c0 -31 -21 -54 -50 -54 -31 0 -50 24 -50 62 0 22 -7 39 -20 48 -11 8
-20 20 -20 27 0 8 -20 34 -45 58 -24 25 -50 45 -58 45 -7 0 -19 9 -27 20 -8
11 -22 20 -32 20 -10 0 -18 5 -18 10 0 6 -9 10 -20 10 -11 0 -20 5 -20 10 0 6
-18 10 -40 10 -22 0 -40 5 -40 10 0 6 -33 10 -80 10 -47 0 -80 -4 -80 -10 0
-5 -9 -10 -20 -10 -11 0 -20 -4 -20 -10 0 -5 -9 -10 -20 -10 -11 0 -20 -4 -20
-10 0 -5 -12 -10 -26 -10 -34 0 -54 -22 -54 -60 0 -38 -20 -60 -54 -60 -19 0
-26 5 -26 20 0 11 -4 20 -10 20 -5 0 -10 22 -10 48 0 36 -5 51 -20 62 -11 8
-20 22 -20 32 0 11 -7 18 -20 18 -11 0 -20 5 -20 10 0 6 -9 10 -20 10 -11 0
-20 5 -20 10 0 6 -9 10 -20 10 -11 0 -20 5 -20 10 0 6 -33 10 -80 10 -47 0
-80 -4 -80 -10 0 -5 -13 -10 -30 -10 -16 0 -30 -4 -30 -10 0 -5 -13 -10 -30
-10 -16 0 -30 -4 -30 -10 0 -5 -13 -10 -30 -10 -16 0 -30 -4 -30 -10 0 -5 -9
-10 -20 -10 -11 0 -20 -4 -20 -10 0 -5 -13 -10 -30 -10 -16 0 -30 -4 -30 -10
0 -5 -9 -10 -20 -10 -11 0 -20 -4 -20 -10 0 -5 -7 -10 -16 -10 -20 0 -44 -24
-44 -44 0 -9 -4 -16 -10 -16 -5 0 -10 -18 -10 -40 0 -22 -4 -40 -10 -40 -5 0
-10 -22 -10 -50 0 -27 -4 -50 -10 -50 -5 0 -10 -13 -10 -30 0 -16 5 -30 10
-30 6 0 10 -22 10 -50 0 -27 5 -50 10 -50 6 0 10 -13 10 -28 0 -16 8 -34 20
-42 11 -8 20 -20 20 -28 0 -17 25 -42 42 -42 8 0 20 -9 28 -20 8 -11 22 -20
32 -20 14 0 18 -8 18 -40 0 -38 -2 -40 -30 -40 -23 0 -30 -4 -30 -20 0 -11 -4
-20 -10 -20 -5 0 -10 -18 -10 -40 0 -22 -4 -40 -10 -40 -6 0 -10 -40 -10 -100
0 -60 4 -100 10 -100 6 0 10 -9 10 -20 0 -11 5 -20 10 -20 6 0 10 -8 10 -18 0
-10 9 -24 20 -32 11 -8 20 -22 20 -32 0 -10 5 -18 10 -18 6 0 10 -9 10 -20 0
-11 5 -20 10 -20 6 0 10 -9 10 -20 0 -12 7 -20 16 -20 9 0 29 -13 44 -30 15
-16 35 -30 44 -30 9 0 16 -4 16 -10 0 -5 14 -10 30 -10 17 0 30 -4 30 -10 0
-6 30 -10 70 -10 40 0 70 -4 70 -10 0 -5 14 -10 30 -10 17 0 30 5 30 10 0 6
27 10 60 10 33 0 60 4 60 10 0 6 7 10 15 10 20 0 65 45 65 65 0 8 5 15 10 15
6 0 10 9 10 20 0 11 5 20 10 20 6 0 10 8 10 18 0 10 9 24 20 32 11 8 20 22 20
32 0 10 5 18 10 18 6 0 10 14 10 30 0 17 -4 30 -10 30 -5 0 -10 12 -10 26 0
16 -12 37 -30 54 -16 15 -30 35 -30 44 0 9 -4 16 -10 16 -15 0 -12 29 4 46 17
16 66 19 66 4 0 -5 9 -10 20 -10 11 0 20 5 20 10 0 6 43 10 110 10 67 0 110 4
110 10 0 6 16 10 35 10 29 0 44 9 80 45 25 24 45 49 45 55 0 15 25 40 40 40
17 0 40 -26 40 -44 0 -9 5 -16 10 -16 6 0 10 -7 10 -15 0 -18 84 -105 101
-105 6 0 28 -18 49 -40 21 -22 46 -40 54 -40 9 0 16 -4 16 -10 0 -5 9 -10 20
-10 11 0 20 -4 20 -10 0 -6 30 -10 70 -10 40 0 70 -4 70 -10 0 -5 14 -10 30
-10 28 0 30 -2 30 -40 0 -38 -2 -40 -30 -40 -16 0 -30 -4 -30 -10 0 -5 -9 -10
-19 -10 -11 0 -22 -6 -25 -12 -5 -10 -7 -10 -12 0 -3 7 -25 12 -54 12 -29 0
-51 5 -54 13 -5 10 -7 10 -12 0 -3 -7 -23 -13 -45 -13 -21 0 -39 -4 -39 -10 0
-5 -13 -10 -28 -10 -16 0 -34 -8 -42 -20 -8 -11 -20 -20 -27 -20 -22 0 -103
-88 -103 -110 0 -12 -6 -28 -14 -36 -17 -16 -46 -19 -46 -4 0 6 -27 10 -60 10
-33 0 -60 -4 -60 -10 0 -5 -9 -10 -20 -10 -11 0 -20 -4 -20 -10 0 -5 -8 -10
-18 -10 -10 0 -24 -9 -32 -20 -8 -11 -22 -20 -32 -20 -10 0 -18 -4 -18 -10 0
-5 -9 -10 -20 -10 -11 0 -20 -4 -20 -10 0 -5 -7 -10 -16 -10 -9 0 -29 -13 -44
-30 -21 -23 -37 -30 -64 -30 -20 0 -36 -4 -36 -10 0 -5 -13 -10 -30 -10 -16 0
-30 -4 -30 -10 0 -5 -9 -10 -20 -10 -11 0 -20 -4 -20 -10 0 -5 -13 -10 -28
-10 -16 0 -34 -8 -42 -20 -10 -14 -26 -20 -52 -20 -21 0 -38 5 -38 10 0 6 -9
10 -20 10 -11 0 -20 5 -20 10 0 6 -9 10 -20 10 -11 0 -20 5 -20 10 0 6 -30 10
-70 10 -40 0 -70 4 -70 10 0 6 -13 10 -30 10 -16 0 -30 5 -30 10 0 6 -27 10
-60 10 -33 0 -60 -4 -60 -10 0 -6 -27 -10 -60 -10 -33 0 -60 4 -60 10 0 6 -7
10 -15 10 -18 0 -85 64 -85 80 0 14 -86 100 -101 100 -6 0 -24 14 -39 30 -15
17 -35 30 -44 30 -9 0 -16 7 -16 15 0 20 -45 65 -65 65 -8 0 -15 5 -15 10 0 6
-22 10 -50 10 -27 0 -50 5 -50 10 0 6 -21 10 -46 10 -38 0 -51 -5 -74 -30 -15
-16 -33 -30 -40 -30 -24 0 -40 30 -40 74 0 25 -4 46 -10 46 -5 0 -10 18 -10
40 0 22 -4 40 -10 40 -5 0 -10 18 -10 40 0 22 -4 40 -10 40 -5 0 -10 14 -10
30 0 17 -4 30 -10 30 -5 0 -10 14 -10 30 0 17 -4 30 -10 30 -5 0 -10 9 -10 20
0 11 -4 20 -10 20 -5 0 -10 8 -10 18 0 10 -9 24 -20 32 -11 8 -20 22 -20 32 0
10 -4 18 -10 18 -5 0 -10 7 -10 15 0 20 -65 85 -85 85 -8 0 -15 5 -15 10 0 20
-33 9 -60 -20 -17 -18 -38 -30 -54 -30 -24 0 -26 3 -26 49 0 30 -5 52 -13 55
-9 5 -9 7 1 12 6 3 12 14 12 25 0 10 5 19 10 19 6 0 10 9 10 20 0 11 5 20 10
20 6 0 10 9 10 20 0 11 5 20 10 20 6 0 10 9 10 20 0 11 -4 20 -10 20 -5 0 -10
14 -10 30 0 17 -4 30 -10 30 -5 0 -10 8 -10 18 0 10 -9 24 -20 32 -11 8 -20
21 -20 30 0 9 -9 22 -20 30 -11 8 -20 22 -20 32 0 10 -4 18 -10 18 -5 0 -10 8
-10 18 0 10 -9 24 -20 32 -11 8 -20 21 -20 28 0 8 -13 27 -30 42 -21 20 -30
37 -30 60 0 33 30 75 38 52 2 -6 10 -12 18 -12 19 0 84 65 84 85 0 8 5 15 10
15 6 0 10 8 10 18 0 10 9 24 20 32 11 8 20 22 20 32 0 10 5 18 10 18 6 0 10 9
10 20 0 11 5 20 10 20 6 0 10 37 10 90 0 53 -4 90 -10 90 -5 0 -10 23 -10 50
0 28 -4 50 -10 50 -6 0 -10 27 -10 60 0 53 2 60 20 60 11 0 20 5 20 10 0 6 9
10 20 10 11 0 20 5 20 10 0 6 14 10 30 10 17 0 30 -4 30 -10 0 -6 30 -10 70
-10 40 0 70 4 70 10 0 6 7 10 15 10 25 0 65 46 65 75 0 14 5 25 10 25 6 0 10
9 10 20 0 11 5 20 10 20 6 0 10 9 10 20 0 11 5 20 10 20 6 0 10 9 10 20 0 11
5 20 10 20 6 0 10 23 10 50 0 28 -4 50 -10 50 -5 0 -10 21 -10 46 0 44 16 74
40 74 17 0 40 -26 40 -44 0 -9 5 -16 10 -16 6 0 10 -9 10 -20 0 -11 5 -20 10
-20 6 0 10 -9 10 -20 0 -13 7 -20 20 -20 11 0 20 -4 20 -10 0 -5 9 -10 20 -10
11 0 20 -4 20 -10 0 -5 9 -10 20 -10 11 0 20 -4 20 -10 0 -5 14 -10 30 -10 17
0 30 -4 30 -10 0 -6 40 -10 100 -10 60 0 100 -4 100 -10 0 -5 18 -10 40 -10
22 0 40 -4 40 -10 0 -5 12 -10 26 -10 17 0 39 14 64 40 l38 40 106 0 106 0 0
-40 c0 -32 4 -40 18 -40 10 0 24 -9 32 -20 10 -14 26 -20 52 -20 21 0 38 -4
38 -10 0 -6 33 -10 80 -10 47 0 80 -4 80 -10 0 -6 27 -10 60 -10 33 0 60 4 60
10 0 6 26 10 58 10 46 0 60 4 72 20 8 11 20 20 28 20 17 0 42 24 42 40 0 7 14
25 30 40 17 15 30 35 30 44 0 9 5 16 10 16 6 0 10 9 10 20 0 11 5 20 10 20 6
0 10 9 10 20 0 11 5 20 10 20 6 0 10 18 10 40 0 22 5 40 10 40 6 0 10 9 10 20
0 11 -4 20 -10 20 -6 0 -10 37 -10 90 0 53 -4 90 -10 90 -5 0 -10 14 -10 30 0
17 -4 30 -10 30 -5 0 -10 9 -10 20 0 11 -4 20 -10 20 -5 0 -10 7 -10 15 0 19
-104 125 -123 125 -7 0 -19 9 -27 20 -8 12 -26 20 -42 20 -15 0 -28 5 -28 10
0 6 -9 10 -20 10 -11 0 -20 5 -20 10 0 6 -43 10 -110 10 -67 0 -110 -4 -110
-10 0 -5 -7 -10 -15 -10 -9 0 -52 -36 -95 -80 l-80 -81 -25 25 c-14 14 -25 30
-25 36 0 17 -26 40 -44 40 -9 0 -16 5 -16 10 0 6 -18 10 -40 10 -22 0 -40 5
-40 10 0 6 -9 10 -20 10 -11 0 -20 5 -20 10 0 6 -9 10 -20 10 -11 0 -20 5 -20
10 0 6 -9 10 -20 10 -11 0 -20 5 -20 10 0 6 -9 10 -20 10 -11 0 -20 5 -20 10
0 6 -37 10 -90 10 -53 0 -90 -4 -90 -10z"/>
<path d="M3 4220 c-1 -91 2 -156 4 -146 3 11 23 36 44 57 44 42 50 76 19 99
-11 8 -20 22 -20 32 0 10 -4 18 -10 18 -5 0 -10 14 -10 30 0 17 -4 30 -9 30
-5 0 -12 10 -14 23 -2 12 -4 -52 -4 -143z"/>
<path d="M3260 3160 c-29 -32 -42 -39 -72 -40 -21 0 -38 -4 -38 -10 0 -6 -37
-10 -90 -10 -53 0 -90 -4 -90 -10 0 -5 -9 -10 -20 -10 -16 0 -20 -7 -20 -30 0
-16 5 -30 10 -30 6 0 10 -29 10 -68 0 -56 -3 -70 -20 -82 -11 -8 -20 -22 -20
-32 0 -10 -4 -18 -10 -18 -5 0 -10 -8 -10 -18 0 -10 -9 -24 -20 -32 -11 -8
-20 -22 -20 -32 0 -10 -4 -18 -10 -18 -5 0 -10 -7 -10 -15 0 -9 -11 -27 -25
-40 -13 -14 -31 -25 -40 -25 -8 0 -15 -4 -15 -10 0 -22 53 -9 80 20 21 23 37
30 64 30 20 0 36 5 36 10 0 6 8 10 18 10 10 0 24 9 32 20 8 11 22 20 32 20 10
0 18 5 18 10 0 6 9 10 20 10 11 0 20 5 20 10 0 6 9 10 20 10 11 0 20 5 20 10
0 6 30 10 70 10 56 0 70 3 70 15 0 19 84 105 103 105 7 0 19 9 27 20 8 11 22
20 32 20 10 0 18 5 18 10 0 6 9 10 20 10 11 0 20 5 20 10 0 6 9 10 20 10 11 0
20 2 20 5 0 11 -49 55 -60 55 -6 0 -42 32 -80 70 -38 39 -70 70 -72 70 -2 -1
-19 -19 -38 -40z"/>
<path d="M2290 2610 c0 -5 9 -10 20 -10 11 0 20 5 20 10 0 6 -9 10 -20 10 -11
0 -20 -4 -20 -10z"/>
<path d="M2370 2590 c0 -5 23 -10 50 -10 28 0 50 -4 50 -10 0 -5 14 -10 30
-10 17 0 30 -4 30 -10 0 -5 14 -10 30 -10 17 0 30 5 30 10 0 6 14 10 30 10 17
0 30 5 30 10 0 6 9 10 20 10 11 0 20 5 20 10 0 6 -9 10 -20 10 -11 0 -20 -4
-20 -10 0 -6 -33 -10 -80 -10 -47 0 -80 4 -80 10 0 6 -27 10 -60 10 -33 0 -60
-4 -60 -10z"/>
</g>
</svg>
